# xmcd
#
# Track frame offsets:
#	150
#	17938
#	34075
#	48385
#	64461
#	81489
#	96053
#	119117
#	135488
#	152132
#	166996
#	183027
#	201729
#	215255
#	231064
#	246481
#	262365
#	276663
#	294772
#	311275
#	326644
#	342800
#
# Disc length: 4766 seconds
# Revision: 0
# Processed by: cddbd v1.5.2PL0 Copyright (c) Steve Scherf et al.
# Submitted via: dBpowerAMP V12.0
#
DISCID=57129c16
DTITLE=Various Artist - Gnadenlos Sommer Folge5 CD1
DYEAR=2003
DGENRE=Discofox
TTITLE0=Daniel Beck - Lass uns fliegen
TTITLE1=Michael Wendler - Alibi
TTITLE2=Modern Talking - Taxi Girl
TTITLE3=Nico Gemba - Männer weinen nicht
TTITLE4=Ibo - Ibiza Remix (Single Edit)
TTITLE5=Matthias Carras - Hau doch ab!
TTITLE6=Oliver Frank - Wehrlos (Maxi Remix)
TTITLE7=Modern Talking - Win the Race (Radio Edit)
TTITLE8=Francesco Napoli - Ciao
TTITLE9=Bernd Berger - Du bist nicht von dieser Welt
TTITLE10=Bert Silver - Baby Blue-Feuer in deinen Augen
TTITLE11=Christian König - (Wann liegen wir uns wieder in den Armen)Barbara
TTITLE12=Edwina de Pooter - Was wäre wenn
TTITLE13=Masterboy - Feel the Heat of the Night (Special D Edit)
TTITLE14=Peter Sebastian - Und das für immer und für allezeit
TTITLE15=Peter Steinbach - Amors Pfeil (Volles Rohr Mix)
TTITLE16=Frank Lars - Ich hau jetzt ab auf eine Insel
TTITLE17=Modern Talking - My lonely Girl
TTITLE18=Marianne Rosenberg - Ich bin wie du
TTITLE19=Ulli Bastian - 365 Mal im Jahr
TTITLE20=Pierre Mertien - Kein Stern glüht eine Nacht (Radio Version)
TTITLE21=Playa Rouge - Frag dein Herz Maria Katarina
EXTD=
EXTT0=
EXTT1=
EXTT2=
EXTT3=
EXTT4=
EXTT5=
EXTT6=
EXTT7=
EXTT8=
EXTT9=
EXTT10=
EXTT11=
EXTT12=
EXTT13=
EXTT14=
EXTT15=
EXTT16=
EXTT17=
EXTT18=
EXTT19=
EXTT20=
EXTT21=
PLAYORDER=
